<?xml version="1.0" encoding="UTF-8"?>
<svg width="1559px" height="638px" viewBox="0 0 1559 638" version="1.1" xmlns="http://www.w3.org/2000/svg" xmlns:xlink="http://www.w3.org/1999/xlink">
    <!-- Generator: Sketch 51.2 (57519) - http://www.bohemiancoding.com/sketch -->
    <title>Graduation Cap &amp; Line</title>
    <desc>Created with Sketch.</desc>
    <defs></defs>
    <g id="Round-4" stroke="none" stroke-width="1" fill="none" fill-rule="evenodd">
        <g id="Hero-Image" transform="translate(1.000000, -154.000000)">
            <g id="Graduation-Cap-&amp;-Line" transform="translate(0.000000, 135.000000)">
                <path d="M1416.61914,65.0507812 C1481.94656,118.104884 1502.82481,165.037826 1479.25391,205.849609 C1443.89755,267.067284 1205,160.096114 1205,265.449219 C1205,370.802323 1556,279.980469 1556,405.863281 C1556,531.746094 1385.7081,457.871819 1213.49034,419.75254 C1041.27257,381.633261 780.582654,352.87174 644.372495,370.802323 C508.162336,388.732906 432.584643,436.806107 415.217554,477.428089 C397.850466,518.05007 408.217594,532.894221 425.569058,531.525556 C442.920521,530.15689 463.732902,494.607769 449.24861,465.078819 C434.764318,435.549868 393.698165,444.883142 298.163536,531.525556 C234.473783,589.287164 135.085938,630.445312 0,655" id="Path-8" stroke="#464646" stroke-width="3"></path>
                <g id="Graduation-Cap" transform="translate(1353.785156, 55.933594) rotate(17.000000) translate(-1353.785156, -55.933594) translate(1290.785156, 17.433594)">
                    <path d="M62.6870998,44.4838842 L8.41950624,23.1332701 C6.58273619,22.4105508 6.63259715,19.7898491 8.49362389,19.1373754 L62.7194421,0.11972626 C63.1776239,-0.0410281257 63.6762335,-0.0396772485 64.1330677,0.122428015 L120.834415,20.3153403 C122.721046,20.9867263 122.721046,23.6601122 120.834415,24.3314982 L64.1761907,44.5081999 C63.6924046,44.6797613 63.164148,44.6716561 62.6870998,44.4838842" id="Fill-41" fill="#00C4C9"></path>
                    <path d="M24.3642335,37.7875859 L62.9700945,25.4743403 M24.3642335,37.7875859 L23.9828645,60.1797263 C23.9693886,61.0091649 23.7456881,61.8250947 23.3211961,62.5383578 C18.7488111,70.2261999 8.89520678,75.2149894 4.09373084,76.3780947 C3.48731373,76.5253403 2.86472549,76.2362526 2.57768806,75.6850947 L0.152019612,71.007007 C-0.295381457,70.1437964 0.294864532,69.114428 1.2678271,69.0428315 C9.85873619,68.4146736 16.1236988,65.8101824 19.9778164,63.7527964 C22.7093886,62.2938491 25.93418,62.0709543 28.8544153,63.1043754 L62.517303,75.0164105 C62.8097308,75.120428 63.1304581,75.120428 63.4228859,75.0164105 L101.075998,61.6913578 C101.616383,61.5008842 101.977538,60.9916035 101.977538,60.4201824 L101.977538,39.5558842 C101.977538,38.6251298 101.051742,37.9726561 100.170415,38.2847087 L63.4228859,51.2896035 C63.1304581,51.393621 62.8097308,51.393621 62.517303,51.2896035 L3.53852229,30.4171999 C2.3378164,29.9930245 2.3378164,28.3003754 3.53852229,27.8748491 L62.517303,7.00244556 C62.8097308,6.89842801 63.1304581,6.89842801 63.4228859,7.00244556 L125.993004,29.1460245" id="Stroke-43" stroke="#464646" stroke-width="3" stroke-linecap="round" stroke-linejoin="round"></path>
                </g>
            </g>
        </g>
    </g>
</svg>